<?xml version="1.0" standalone="no"?>
<!DOCTYPE svg PUBLIC "-//W3C//DTD SVG 20010904//EN"
 "http://www.w3.org/TR/2001/REC-SVG-20010904/DTD/svg10.dtd">
<svg version="1.0" xmlns="http://www.w3.org/2000/svg"
 width="200.000000pt" height="200.000000pt" viewBox="0 0 200.000000 200.000000"
 preserveAspectRatio="xMidYMid meet">

<g transform="translate(0.000000,200.000000) scale(0.100000,-0.100000)"
fill="#000000" stroke="none">
<path d="M719 1342 c-108 -56 -146 -169 -100 -292 29 -78 131 -208 255 -328
144 -139 138 -139 294 16 226 224 300 374 243 497 -36 78 -117 134 -196 135
-50 0 -131 -38 -169 -78 l-29 -31 -40 35 c-86 78 -169 93 -258 46z m164 -38
c18 -9 48 -31 67 -49 54 -49 62 -49 129 5 35 28 76 52 97 56 155 29 254 -124
176 -273 -45 -88 -108 -166 -223 -278 -92 -89 -111 -104 -127 -96 -32 17 -207
196 -257 263 -114 152 -130 243 -57 330 47 56 131 74 195 42z"/>
</g>
</svg>
